<mxfile host="app.diagrams.net" agent="Mozilla/5.0 (Windows NT 10.0; Win64; x64) AppleWebKit/537.36 (KHTML, like Gecko) Chrome/135.0.0.0 Safari/537.36" version="26.2.9">
  <diagram id="C5RBs43oDa-KdzZeNtuy" name="Page-1">
    <mxGraphModel dx="2255" dy="777" grid="1" gridSize="10" guides="1" tooltips="1" connect="1" arrows="1" fold="1" page="1" pageScale="1" pageWidth="827" pageHeight="1169" math="0" shadow="0">
      <root>
        <mxCell id="WIyWlLk6GJQsqaUBKTNV-0" />
        <mxCell id="WIyWlLk6GJQsqaUBKTNV-1" parent="WIyWlLk6GJQsqaUBKTNV-0" />
        <mxCell id="YBwVoU7XmbFvbaGjVQKz-5" value="" style="edgeStyle=orthogonalEdgeStyle;rounded=0;orthogonalLoop=1;jettySize=auto;html=1;" edge="1" parent="WIyWlLk6GJQsqaUBKTNV-1" source="YBwVoU7XmbFvbaGjVQKz-0" target="YBwVoU7XmbFvbaGjVQKz-4">
          <mxGeometry relative="1" as="geometry" />
        </mxCell>
        <mxCell id="YBwVoU7XmbFvbaGjVQKz-0" value="" style="ellipse;whiteSpace=wrap;html=1;aspect=fixed;fillColor=#d5e8d4;strokeColor=#82b366;" vertex="1" parent="WIyWlLk6GJQsqaUBKTNV-1">
          <mxGeometry x="80" y="40" width="80" height="80" as="geometry" />
        </mxCell>
        <mxCell id="YBwVoU7XmbFvbaGjVQKz-7" value="" style="edgeStyle=orthogonalEdgeStyle;rounded=0;orthogonalLoop=1;jettySize=auto;html=1;" edge="1" parent="WIyWlLk6GJQsqaUBKTNV-1" source="YBwVoU7XmbFvbaGjVQKz-4" target="YBwVoU7XmbFvbaGjVQKz-6">
          <mxGeometry relative="1" as="geometry" />
        </mxCell>
        <mxCell id="YBwVoU7XmbFvbaGjVQKz-4" value="Ingrese el valor de A" style="whiteSpace=wrap;html=1;" vertex="1" parent="WIyWlLk6GJQsqaUBKTNV-1">
          <mxGeometry x="220" y="50" width="120" height="60" as="geometry" />
        </mxCell>
        <mxCell id="YBwVoU7XmbFvbaGjVQKz-9" value="" style="edgeStyle=orthogonalEdgeStyle;rounded=0;orthogonalLoop=1;jettySize=auto;html=1;" edge="1" parent="WIyWlLk6GJQsqaUBKTNV-1" source="YBwVoU7XmbFvbaGjVQKz-6" target="YBwVoU7XmbFvbaGjVQKz-8">
          <mxGeometry relative="1" as="geometry" />
        </mxCell>
        <mxCell id="YBwVoU7XmbFvbaGjVQKz-6" value="Ingrese el valor de B" style="whiteSpace=wrap;html=1;" vertex="1" parent="WIyWlLk6GJQsqaUBKTNV-1">
          <mxGeometry x="420" y="50" width="120" height="60" as="geometry" />
        </mxCell>
        <mxCell id="YBwVoU7XmbFvbaGjVQKz-11" value="" style="edgeStyle=orthogonalEdgeStyle;rounded=0;orthogonalLoop=1;jettySize=auto;html=1;entryX=1;entryY=0.5;entryDx=0;entryDy=0;" edge="1" parent="WIyWlLk6GJQsqaUBKTNV-1" source="YBwVoU7XmbFvbaGjVQKz-8" target="YBwVoU7XmbFvbaGjVQKz-6">
          <mxGeometry relative="1" as="geometry">
            <mxPoint x="580" y="220" as="targetPoint" />
            <Array as="points">
              <mxPoint x="560" y="220" />
              <mxPoint x="560" y="80" />
            </Array>
          </mxGeometry>
        </mxCell>
        <mxCell id="YBwVoU7XmbFvbaGjVQKz-12" value="Si" style="edgeLabel;html=1;align=center;verticalAlign=middle;resizable=0;points=[];" vertex="1" connectable="0" parent="YBwVoU7XmbFvbaGjVQKz-11">
          <mxGeometry x="-0.2333" y="3" relative="1" as="geometry">
            <mxPoint as="offset" />
          </mxGeometry>
        </mxCell>
        <mxCell id="YBwVoU7XmbFvbaGjVQKz-14" value="" style="edgeStyle=orthogonalEdgeStyle;rounded=0;orthogonalLoop=1;jettySize=auto;html=1;" edge="1" parent="WIyWlLk6GJQsqaUBKTNV-1" source="YBwVoU7XmbFvbaGjVQKz-8" target="YBwVoU7XmbFvbaGjVQKz-13">
          <mxGeometry relative="1" as="geometry" />
        </mxCell>
        <mxCell id="YBwVoU7XmbFvbaGjVQKz-15" value="No" style="edgeLabel;html=1;align=center;verticalAlign=middle;resizable=0;points=[];" vertex="1" connectable="0" parent="YBwVoU7XmbFvbaGjVQKz-14">
          <mxGeometry x="-0.2" y="-1" relative="1" as="geometry">
            <mxPoint as="offset" />
          </mxGeometry>
        </mxCell>
        <mxCell id="YBwVoU7XmbFvbaGjVQKz-8" value="A=B" style="rhombus;whiteSpace=wrap;html=1;" vertex="1" parent="WIyWlLk6GJQsqaUBKTNV-1">
          <mxGeometry x="440" y="180" width="80" height="80" as="geometry" />
        </mxCell>
        <mxCell id="YBwVoU7XmbFvbaGjVQKz-17" value="" style="edgeStyle=orthogonalEdgeStyle;rounded=0;orthogonalLoop=1;jettySize=auto;html=1;" edge="1" parent="WIyWlLk6GJQsqaUBKTNV-1" source="YBwVoU7XmbFvbaGjVQKz-13" target="YBwVoU7XmbFvbaGjVQKz-16">
          <mxGeometry relative="1" as="geometry" />
        </mxCell>
        <mxCell id="YBwVoU7XmbFvbaGjVQKz-13" value="Ingrese el valor de C" style="whiteSpace=wrap;html=1;" vertex="1" parent="WIyWlLk6GJQsqaUBKTNV-1">
          <mxGeometry x="260" y="190" width="120" height="60" as="geometry" />
        </mxCell>
        <mxCell id="YBwVoU7XmbFvbaGjVQKz-18" style="edgeStyle=orthogonalEdgeStyle;rounded=0;orthogonalLoop=1;jettySize=auto;html=1;entryX=0;entryY=0.5;entryDx=0;entryDy=0;" edge="1" parent="WIyWlLk6GJQsqaUBKTNV-1" source="YBwVoU7XmbFvbaGjVQKz-16" target="YBwVoU7XmbFvbaGjVQKz-13">
          <mxGeometry relative="1" as="geometry">
            <Array as="points">
              <mxPoint x="240" y="370" />
              <mxPoint x="240" y="220" />
            </Array>
          </mxGeometry>
        </mxCell>
        <mxCell id="YBwVoU7XmbFvbaGjVQKz-19" value="Si" style="edgeLabel;html=1;align=center;verticalAlign=middle;resizable=0;points=[];" vertex="1" connectable="0" parent="YBwVoU7XmbFvbaGjVQKz-18">
          <mxGeometry x="0.0857" relative="1" as="geometry">
            <mxPoint as="offset" />
          </mxGeometry>
        </mxCell>
        <mxCell id="YBwVoU7XmbFvbaGjVQKz-28" style="edgeStyle=orthogonalEdgeStyle;rounded=0;orthogonalLoop=1;jettySize=auto;html=1;entryX=0.5;entryY=0;entryDx=0;entryDy=0;" edge="1" parent="WIyWlLk6GJQsqaUBKTNV-1" source="YBwVoU7XmbFvbaGjVQKz-16" target="YBwVoU7XmbFvbaGjVQKz-25">
          <mxGeometry relative="1" as="geometry">
            <Array as="points">
              <mxPoint x="320" y="450" />
            </Array>
          </mxGeometry>
        </mxCell>
        <mxCell id="YBwVoU7XmbFvbaGjVQKz-48" value="No" style="edgeLabel;html=1;align=center;verticalAlign=middle;resizable=0;points=[];" vertex="1" connectable="0" parent="YBwVoU7XmbFvbaGjVQKz-28">
          <mxGeometry x="-0.2556" relative="1" as="geometry">
            <mxPoint as="offset" />
          </mxGeometry>
        </mxCell>
        <mxCell id="YBwVoU7XmbFvbaGjVQKz-16" value="C=A o C=B" style="rhombus;whiteSpace=wrap;html=1;" vertex="1" parent="WIyWlLk6GJQsqaUBKTNV-1">
          <mxGeometry x="280" y="330" width="80" height="80" as="geometry" />
        </mxCell>
        <mxCell id="YBwVoU7XmbFvbaGjVQKz-51" style="edgeStyle=orthogonalEdgeStyle;rounded=0;orthogonalLoop=1;jettySize=auto;html=1;entryX=1;entryY=0.5;entryDx=0;entryDy=0;" edge="1" parent="WIyWlLk6GJQsqaUBKTNV-1" source="YBwVoU7XmbFvbaGjVQKz-25" target="YBwVoU7XmbFvbaGjVQKz-38">
          <mxGeometry relative="1" as="geometry" />
        </mxCell>
        <mxCell id="YBwVoU7XmbFvbaGjVQKz-52" value="si" style="edgeLabel;html=1;align=center;verticalAlign=middle;resizable=0;points=[];" vertex="1" connectable="0" parent="YBwVoU7XmbFvbaGjVQKz-51">
          <mxGeometry x="-0.32" relative="1" as="geometry">
            <mxPoint as="offset" />
          </mxGeometry>
        </mxCell>
        <mxCell id="YBwVoU7XmbFvbaGjVQKz-60" value="" style="edgeStyle=orthogonalEdgeStyle;rounded=0;orthogonalLoop=1;jettySize=auto;html=1;" edge="1" parent="WIyWlLk6GJQsqaUBKTNV-1" source="YBwVoU7XmbFvbaGjVQKz-25" target="YBwVoU7XmbFvbaGjVQKz-59">
          <mxGeometry relative="1" as="geometry">
            <Array as="points">
              <mxPoint x="320" y="570" />
              <mxPoint x="320" y="570" />
            </Array>
          </mxGeometry>
        </mxCell>
        <mxCell id="YBwVoU7XmbFvbaGjVQKz-61" value="No" style="edgeLabel;html=1;align=center;verticalAlign=middle;resizable=0;points=[];" vertex="1" connectable="0" parent="YBwVoU7XmbFvbaGjVQKz-60">
          <mxGeometry x="-0.225" y="1" relative="1" as="geometry">
            <mxPoint as="offset" />
          </mxGeometry>
        </mxCell>
        <mxCell id="YBwVoU7XmbFvbaGjVQKz-25" value="A mayor a B" style="rhombus;whiteSpace=wrap;html=1;" vertex="1" parent="WIyWlLk6GJQsqaUBKTNV-1">
          <mxGeometry x="280" y="460" width="80" height="80" as="geometry" />
        </mxCell>
        <mxCell id="YBwVoU7XmbFvbaGjVQKz-54" value="" style="edgeStyle=orthogonalEdgeStyle;rounded=0;orthogonalLoop=1;jettySize=auto;html=1;" edge="1" parent="WIyWlLk6GJQsqaUBKTNV-1" source="YBwVoU7XmbFvbaGjVQKz-38" target="YBwVoU7XmbFvbaGjVQKz-53">
          <mxGeometry relative="1" as="geometry" />
        </mxCell>
        <mxCell id="YBwVoU7XmbFvbaGjVQKz-55" value="si" style="edgeLabel;html=1;align=center;verticalAlign=middle;resizable=0;points=[];" vertex="1" connectable="0" parent="YBwVoU7XmbFvbaGjVQKz-54">
          <mxGeometry x="-0.2333" y="2" relative="1" as="geometry">
            <mxPoint as="offset" />
          </mxGeometry>
        </mxCell>
        <mxCell id="YBwVoU7XmbFvbaGjVQKz-80" style="edgeStyle=orthogonalEdgeStyle;rounded=0;orthogonalLoop=1;jettySize=auto;html=1;entryX=1;entryY=0.5;entryDx=0;entryDy=0;" edge="1" parent="WIyWlLk6GJQsqaUBKTNV-1" source="YBwVoU7XmbFvbaGjVQKz-38" target="YBwVoU7XmbFvbaGjVQKz-79">
          <mxGeometry relative="1" as="geometry">
            <Array as="points">
              <mxPoint x="190" y="390" />
            </Array>
          </mxGeometry>
        </mxCell>
        <mxCell id="YBwVoU7XmbFvbaGjVQKz-81" value="No" style="edgeLabel;html=1;align=center;verticalAlign=middle;resizable=0;points=[];" vertex="1" connectable="0" parent="YBwVoU7XmbFvbaGjVQKz-80">
          <mxGeometry x="-0.6" y="2" relative="1" as="geometry">
            <mxPoint as="offset" />
          </mxGeometry>
        </mxCell>
        <mxCell id="YBwVoU7XmbFvbaGjVQKz-38" value="A mayor a C" style="rhombus;whiteSpace=wrap;html=1;" vertex="1" parent="WIyWlLk6GJQsqaUBKTNV-1">
          <mxGeometry x="150" y="460" width="80" height="80" as="geometry" />
        </mxCell>
        <mxCell id="YBwVoU7XmbFvbaGjVQKz-53" value="A es mayor" style="whiteSpace=wrap;html=1;" vertex="1" parent="WIyWlLk6GJQsqaUBKTNV-1">
          <mxGeometry x="-30" y="470" width="120" height="60" as="geometry" />
        </mxCell>
        <mxCell id="YBwVoU7XmbFvbaGjVQKz-63" value="" style="edgeStyle=orthogonalEdgeStyle;rounded=0;orthogonalLoop=1;jettySize=auto;html=1;" edge="1" parent="WIyWlLk6GJQsqaUBKTNV-1" source="YBwVoU7XmbFvbaGjVQKz-59" target="YBwVoU7XmbFvbaGjVQKz-62">
          <mxGeometry relative="1" as="geometry" />
        </mxCell>
        <mxCell id="YBwVoU7XmbFvbaGjVQKz-64" value="si" style="edgeLabel;html=1;align=center;verticalAlign=middle;resizable=0;points=[];" vertex="1" connectable="0" parent="YBwVoU7XmbFvbaGjVQKz-63">
          <mxGeometry x="-0.1667" y="-1" relative="1" as="geometry">
            <mxPoint as="offset" />
          </mxGeometry>
        </mxCell>
        <mxCell id="YBwVoU7XmbFvbaGjVQKz-70" style="edgeStyle=orthogonalEdgeStyle;rounded=0;orthogonalLoop=1;jettySize=auto;html=1;entryX=1;entryY=0.5;entryDx=0;entryDy=0;" edge="1" parent="WIyWlLk6GJQsqaUBKTNV-1" source="YBwVoU7XmbFvbaGjVQKz-59" target="YBwVoU7XmbFvbaGjVQKz-67">
          <mxGeometry relative="1" as="geometry">
            <Array as="points">
              <mxPoint x="190" y="705" />
            </Array>
          </mxGeometry>
        </mxCell>
        <mxCell id="YBwVoU7XmbFvbaGjVQKz-71" value="No" style="edgeLabel;html=1;align=center;verticalAlign=middle;resizable=0;points=[];" vertex="1" connectable="0" parent="YBwVoU7XmbFvbaGjVQKz-70">
          <mxGeometry x="0.2125" y="1" relative="1" as="geometry">
            <mxPoint as="offset" />
          </mxGeometry>
        </mxCell>
        <mxCell id="YBwVoU7XmbFvbaGjVQKz-59" value="B es mayor a c" style="rhombus;whiteSpace=wrap;html=1;" vertex="1" parent="WIyWlLk6GJQsqaUBKTNV-1">
          <mxGeometry x="150" y="565" width="80" height="80" as="geometry" />
        </mxCell>
        <mxCell id="YBwVoU7XmbFvbaGjVQKz-62" value="B es mayor" style="whiteSpace=wrap;html=1;" vertex="1" parent="WIyWlLk6GJQsqaUBKTNV-1">
          <mxGeometry x="-30" y="575" width="120" height="60" as="geometry" />
        </mxCell>
        <mxCell id="YBwVoU7XmbFvbaGjVQKz-67" value="" style="rounded=1;whiteSpace=wrap;html=1;" vertex="1" parent="WIyWlLk6GJQsqaUBKTNV-1">
          <mxGeometry x="-30" y="675" width="120" height="60" as="geometry" />
        </mxCell>
        <mxCell id="YBwVoU7XmbFvbaGjVQKz-79" value="C es mayor" style="rounded=0;whiteSpace=wrap;html=1;" vertex="1" parent="WIyWlLk6GJQsqaUBKTNV-1">
          <mxGeometry x="-30" y="360" width="120" height="60" as="geometry" />
        </mxCell>
      </root>
    </mxGraphModel>
  </diagram>
</mxfile>
